<?xml version="1.0" encoding="UTF-8" standalone="no"?>
<!-- Svg Vector Icons : http://www.onlinewebfonts.com/icon -->

<svg
   version="1.1"
   x="0px"
   y="0px"
   viewBox="0 0 1000 1000"
   enable-background="new 0 0 1000 1000"
   xml:space="preserve"
   id="svg126"
   sodipodi:docname="favicon.svg"
   inkscape:version="1.1.2 (b8e25be833, 2022-02-05)"
   xmlns:inkscape="http://www.inkscape.org/namespaces/inkscape"
   xmlns:sodipodi="http://sodipodi.sourceforge.net/DTD/sodipodi-0.dtd"
   xmlns="http://www.w3.org/2000/svg"
   xmlns:svg="http://www.w3.org/2000/svg"><defs
   id="defs130" /><sodipodi:namedview
   id="namedview128"
   pagecolor="#ffffff"
   bordercolor="#999999"
   borderopacity="1"
   inkscape:pageshadow="0"
   inkscape:pageopacity="1"
   inkscape:pagecheckerboard="true"
   showgrid="false"
   inkscape:zoom="0.808"
   inkscape:cx="234.5297"
   inkscape:cy="500"
   inkscape:window-width="1920"
   inkscape:window-height="1046"
   inkscape:window-x="-11"
   inkscape:window-y="-11"
   inkscape:window-maximized="1"
   inkscape:current-layer="layer4" />
<metadata
   id="metadata114"> Svg Vector Icons : http://www.onlinewebfonts.com/icon </metadata>
<g
   inkscape:groupmode="layer"
   id="layer4"
   inkscape:label="Background"><circle
     style="fill:#ffffff;fill-rule:evenodd"
     id="path785"
     cx="515.47028"
     cy="495.6683"
     r="439.97525" /></g><g
   id="g124" />
<g
   inkscape:groupmode="layer"
   id="layer3"
   inkscape:label="Foreground"><path
     d="M500,10C229.4,10,10,229.4,10,500c0,270.6,219.4,490,490,490c270.6,0,490-219.4,490-490C990,229.4,770.6,10,500,10z M500,913.4C271.7,913.4,86.6,728.3,86.6,500S271.7,86.6,500,86.6S913.4,271.7,913.4,500S728.3,913.4,500,913.4z"
     id="path116" /><path
     d="m 691.375,423.4875 v 38.25 l 114.875,-76 -114.875,-77.125 v 38.25 H 538.25 l -153.125,229.75 -191.375,0.5 v 76 H 423.5 l 153.125,-229.75 h 114.75 z"
     id="path118"
     style="stroke-width:1.25" /><path
     d="m 413.25,465.4875 44.625,-67 -34.375,-51.625 H 193.75 v 76.625 h 191.375 z"
     id="path120"
     style="stroke-width:1.25" /><path
     d="M 691.375,576.6125 H 576.5 l -28,-42 -44.625,67 34.375,51.625 h 153.125 v 38.25 l 114.875,-77.125 -114.875,-76 z"
     id="path122"
     style="stroke-width:1.25" /></g></svg>
